<?xml version="1.0" encoding="utf-8"?>
<!-- Generator: Adobe Illustrator 22.0.0, SVG Export Plug-In . SVG Version: 6.00 Build 0)  -->
<svg version="1.1" id="Layer_1" xmlns="http://www.w3.org/2000/svg" xmlns:xlink="http://www.w3.org/1999/xlink" x="0px" y="0px"
	 viewBox="0 0 514.5 402.5" style="enable-background:new 0 0 514.5 402.5;" xml:space="preserve">
<style type="text/css">
	.st0{fill-rule:evenodd;clip-rule:evenodd;fill:#EF3B2D;}
	.st1{fill-rule:evenodd;clip-rule:evenodd;fill:#FFFFFF;}
</style>
<g>
	<g>
		<path class="st0" d="M44.8,260.1L0,347.9h65.6l11.7-24.6c36.8,48.2,94.8,79.2,160,79.2c77.5,0,144.6-43.8,178.3-107.9l34.8,54
			h64.1V124.2h-58.7v121.9l-18.1-26.7c0.5-6,0.9-12,0.9-18.1c0-39.7-11.6-76.7-31.4-107.9h107.4V47.1H366.7
			C331.7,17.7,286.6,0,237.3,0C126.1,0,36,90.1,36,201.3C36,221.8,39.1,241.5,44.8,260.1L44.8,260.1z M77.3,323.3
			c-14.3-18.8-25.4-40.1-32.5-63.2l69.3-135.9h64l-53.2,103.3h54v55.5H96.4L77.3,323.3L77.3,323.3z M266.9,347.9h-58.6V93.4h-71.7
			l19.3-46.3h210.9c15.8,13.2,29.4,28.8,40.5,46.3H266.9V347.9L266.9,347.9z M415.6,294.6L369.4,223v124.9h-66.3V124.2h70.2
			l64.4,95.2C435.3,246.4,427.6,271.8,415.6,294.6L415.6,294.6z"/>
	</g>
	<path class="st1" d="M415.6,294.6L369.4,223v124.9h-66.3V124.2h70.2l64.4,95.2C435.3,246.4,427.6,271.8,415.6,294.6L415.6,294.6z
		 M77.3,323.3c-14.3-18.8-25.4-40.1-32.5-63.2l69.3-135.9h64l-53.2,103.3h54v55.5H96.4L77.3,323.3L77.3,323.3z M266.9,347.9h-58.6
		V93.4h-71.7l19.3-46.3h210.9c15.8,13.2,29.4,28.8,40.5,46.3H266.9V347.9L266.9,347.9z"/>
</g>
</svg>
